<?xml version="1.0" encoding="UTF-8" standalone="no"?>
<svg
   xmlns:dc="http://purl.org/dc/elements/1.1/"
   xmlns:cc="http://creativecommons.org/ns#"
   xmlns:rdf="http://www.w3.org/1999/02/22-rdf-syntax-ns#"
   xmlns:svg="http://www.w3.org/2000/svg"
   xmlns="http://www.w3.org/2000/svg"
   xmlns:sodipodi="http://sodipodi.sourceforge.net/DTD/sodipodi-0.dtd"
   xmlns:inkscape="http://www.inkscape.org/namespaces/inkscape"
   version="1.1"
   x="0px"
   y="0px"
   viewBox="0 0 86 96"
   enable-background="new 0 0 100 100"
   xml:space="preserve"
   id="svg3336"
   inkscape:version="0.92.5 (0.92.5+69)"
   sodipodi:docname="original-colored.svg"
   inkscape:export-filename="C:\Users\steve\Dropbox\wb-gfx\allthebooks\newlogo\original-colored.png"
   inkscape:export-xdpi="1800"
   inkscape:export-ydpi="1800"
   width="86"
   height="96"><metadata
     id="metadata3348"><rdf:RDF><cc:Work
         rdf:about=""><dc:format>image/svg+xml</dc:format><dc:type
           rdf:resource="http://purl.org/dc/dcmitype/StillImage" /><dc:title></dc:title></cc:Work></rdf:RDF></metadata><defs
     id="defs3346" /><sodipodi:namedview
     pagecolor="#3498db"
     bordercolor="#666666"
     borderopacity="1"
     objecttolerance="10"
     gridtolerance="10"
     guidetolerance="10"
     inkscape:pageopacity="1"
     inkscape:pageshadow="2"
     inkscape:window-width="3840"
     inkscape:window-height="1538"
     id="namedview3344"
     showgrid="false"
     inkscape:zoom="8"
     inkscape:cx="39.14143"
     inkscape:cy="73.607727"
     inkscape:window-x="0"
     inkscape:window-y="32"
     inkscape:window-maximized="1"
     inkscape:current-layer="svg3336"
     inkscape:pagecheckerboard="false"
     height="109px" /><path
     d="M 83.116,51.016 C 80.543,46.237 74.51,42.931 74.51,37.094 c 0,-3.041 2.061,-4.016 2.061,-7.469 0,-3.449 -0.313,-7.134 -3.063,-11.068 C 69.2,12.389 60.094,3.375 39.889,3.375 c -24.294,0 -44.605,18.17 -34.103,46.445 3.585,10.281 12.887,14.52 12.887,20.584 0,2.637 -0.701,7.326 -2.587,11.785 -2.451,5.789 -3.416,7.641 -3.416,7.641 -1.018,1.949 -0.051,3.545 2.15,3.545 h 39.25 0.482 c 1.532,-1.912 0.237,-8.15 0.237,-8.15 -0.56,-2.692 1.224,-4.67 3.959,-4.393 0,0 1.776,0.182 6.897,0.783 3.277,0.385 6.484,0.412 8.563,-0.736 5.329,-2.939 0.092,-8.186 0.092,-10.012 0,-1.83 3.773,-1.75 3.773,-3.771 0,-2.02 -3.544,-1.104 -3.591,-2.389 -0.045,-1.287 4.877,-0.283 4.877,-2.305 0,-2.021 -2.023,-2.449 -2.023,-4.703 0,-1.744 4.844,-2.082 5.954,-4.301 0.332,-0.656 0.412,-1.294 -0.174,-2.382 z M 44.1,17.029 45.756,11.927 c 0.234,-0.721 1.008,-1.116 1.729,-0.881 0.722,0.235 1.115,1.008 0.882,1.729 l -1.658,5.102 C 46.476,18.598 45.701,18.992 44.98,18.758 44.258,18.524 43.863,17.75 44.1,17.029 Z M 31.416,11.046 c 0.721,-0.234 1.494,0.16 1.729,0.881 l 1.657,5.102 c 0.234,0.72 -0.16,1.495 -0.881,1.729 -0.721,0.234 -1.493,-0.16 -1.728,-0.881 l -1.658,-5.102 c -0.234,-0.721 0.159,-1.495 0.881,-1.729 z M 13.45,35.773 c 0,-0.758 0.614,-1.371 1.372,-1.371 h 5.362 c 0.759,0 1.373,0.613 1.373,1.371 0,0.758 -0.614,1.372 -1.373,1.372 h -5.362 c -0.758,0 -1.372,-0.614 -1.372,-1.372 z m 11.22,12.434 -4.338,3.152 c -0.613,0.445 -1.471,0.311 -1.916,-0.303 -0.446,-0.613 -0.31,-1.471 0.304,-1.916 l 4.338,-3.153 c 0.614,-0.445 1.472,-0.311 1.917,0.303 0.445,0.615 0.309,1.471 -0.305,1.917 z m 0.305,-22.949 c -0.445,0.613 -1.302,0.748 -1.915,0.302 l -4.34,-3.152 c -0.614,-0.445 -0.75,-1.303 -0.304,-1.917 0.445,-0.613 1.303,-0.749 1.916,-0.303 l 4.34,3.153 c 0.612,0.446 0.749,1.304 0.303,1.917 z M 42.893,60.484 H 42.83 c 0.002,0.018 0.012,0.033 0.012,0.053 0,0.682 -0.553,1.234 -1.235,1.234 h -4.311 c -0.682,0 -1.233,-0.554 -1.233,-1.234 0,-0.02 0.01,-0.035 0.01,-0.053 H 36.01 c -0.682,0 -1.234,-0.553 -1.234,-1.236 0,-0.68 0.553,-1.234 1.234,-1.234 h 6.885 c 0.682,0 1.234,0.555 1.234,1.234 -0.002,0.684 -0.555,1.236 -1.236,1.236 z m 1.175,-3.33 h -9.236 c -0.682,0 -1.235,-0.553 -1.235,-1.234 0,-0.684 0.554,-1.236 1.235,-1.236 h 9.236 c 0.681,0 1.233,0.553 1.233,1.236 0.002,0.682 -0.552,1.234 -1.233,1.234 z m 3.121,-11.206 c -0.881,1.145 -1.039,2.235 -1.192,3.29 -0.354,2.441 -0.974,3.924 -6.548,3.924 -5.573,0 -6.191,-1.482 -6.546,-3.924 -0.153,-1.055 -0.312,-2.146 -1.193,-3.29 -2.604,-3.381 -5.146,-6.981 -5.146,-10.558 0,-7.135 5.78,-12.94 12.885,-12.94 7.105,0 12.888,5.805 12.888,12.94 0,3.573 -2.543,7.175 -5.148,10.558 z m 7.04,-22.607 4.34,-3.153 c 0.613,-0.445 1.472,-0.311 1.916,0.303 0.445,0.614 0.311,1.471 -0.303,1.917 l -4.341,3.153 c -0.612,0.446 -1.471,0.31 -1.916,-0.303 -0.446,-0.614 -0.31,-1.471 0.304,-1.917 z m 6.253,27.716 c -0.443,0.613 -1.301,0.748 -1.914,0.303 L 54.23,48.208 c -0.615,-0.445 -0.75,-1.303 -0.306,-1.916 0.445,-0.613 1.304,-0.748 1.917,-0.303 l 4.338,3.153 c 0.615,0.444 0.751,1.301 0.303,1.915 z m 3.596,-13.912 h -5.364 c -0.758,0 -1.372,-0.614 -1.372,-1.372 0,-0.758 0.614,-1.371 1.372,-1.371 h 5.364 c 0.758,0 1.372,0.613 1.372,1.371 0,0.758 -0.614,1.372 -1.372,1.372 z"
     id="path3338"
     style="fill:#00170b;fill-opacity:1"
     inkscape:connector-curvature="0" /><path
     style="opacity:1;fill:#ffd42a;fill-opacity:1;stroke:#d35400;stroke-width:0.0625;stroke-linecap:round;stroke-linejoin:miter;stroke-miterlimit:4;stroke-dasharray:none;stroke-dashoffset:0;stroke-opacity:1"
     d="m 54.475805,25.625705 c -0.833317,-0.372632 -0.999001,-1.462255 -0.319032,-2.098127 0.57361,-0.536412 4.472657,-3.333291 4.843283,-3.474203 0.499221,-0.189803 1.146512,0.05403 1.445617,0.544552 0.276422,0.453327 0.30234,0.809018 0.09251,1.269552 -0.187241,0.410949 -4.81468,3.788752 -5.307707,3.874365 -0.196079,0.03405 -0.535679,-0.01821 -0.754668,-0.116139 z"
     id="path4192"
     inkscape:connector-curvature="0" /><path
     style="opacity:1;fill:#ffd42a;fill-opacity:1;stroke:#d35400;stroke-width:0.0625;stroke-linecap:round;stroke-linejoin:miter;stroke-miterlimit:4;stroke-dasharray:none;stroke-dashoffset:0;stroke-opacity:1"
     d="M 36.345151,52.867337 C 35.204426,52.66049 34.445515,52.294966 33.89761,51.688501 33.398771,51.136346 33.149283,50.4387 32.883386,48.852425 32.622761,47.297598 32.369205,46.771363 30.972713,44.88698 27.437199,40.116266 26.394589,37.493916 26.702329,34.1462 c 0.482661,-5.250585 4.13753,-9.638514 9.296637,-11.161272 1.527664,-0.450904 4.2474,-0.568284 5.813696,-0.250912 2.765378,0.560337 4.928429,1.742691 6.836697,3.737034 1.622128,1.695297 2.668295,3.56151 3.220275,5.744513 1.048732,4.147596 0.179073,7.013143 -3.773555,12.433957 -1.555793,2.133682 -1.832495,2.705151 -2.102269,4.34177 -0.43259,2.624376 -1.162939,3.432751 -3.506531,3.881155 -1.189898,0.227665 -4.87534,0.224601 -6.142128,-0.0051 v 5e-6 z"
     id="path4194"
     inkscape:connector-curvature="0" /><path
     style="opacity:1;fill:#ffd42a;fill-opacity:1;stroke:#d35400;stroke-width:0.0625;stroke-linecap:round;stroke-linejoin:miter;stroke-miterlimit:4;stroke-dasharray:none;stroke-dashoffset:0;stroke-opacity:1"
     d="m 18.657188,51.189043 c -0.344596,-0.307896 -0.408222,-0.451022 -0.408222,-0.918288 0,-0.304448 0.07835,-0.647946 0.174109,-0.76333 0.18958,-0.22843 4.404641,-3.321468 4.848923,-3.558171 0.521528,-0.277856 1.032352,-0.17758 1.505459,0.295526 0.395117,0.395118 0.433994,0.493149 0.373737,0.942402 -0.03699,0.275777 -0.138034,0.586698 -0.224544,0.690935 -0.180893,0.217963 -4.414761,3.317337 -4.825716,3.532633 -0.478547,0.250707 -1.005608,0.169769 -1.443746,-0.221707 z"
     id="path4196"
     inkscape:connector-curvature="0" /><path
     style="opacity:1;fill:#ffd42a;fill-opacity:1;stroke:#d35400;stroke-width:0.0625;stroke-linecap:round;stroke-linejoin:miter;stroke-miterlimit:4;stroke-dasharray:none;stroke-dashoffset:0;stroke-opacity:1"
     d="m 13.926851,36.688405 c -0.675589,-0.675589 -0.430102,-1.801098 0.467256,-2.142273 0.169749,-0.06454 1.576159,-0.117342 3.125355,-0.117342 2.281463,0 2.894072,0.0367 3.223767,0.193156 0.81452,0.386514 0.977915,1.416397 0.327852,2.066459 l -0.365384,0.365385 h -3.206731 -3.206731 z"
     id="path4198"
     inkscape:connector-curvature="0" /><path
     style="opacity:1;fill:#ffd42a;fill-opacity:1;stroke:#d35400;stroke-width:0.0625;stroke-linecap:round;stroke-linejoin:miter;stroke-miterlimit:4;stroke-dasharray:none;stroke-dashoffset:0;stroke-opacity:1"
     d="m 23.186466,25.537059 c -0.240625,-0.146189 -1.408968,-0.972996 -2.596318,-1.837351 -1.909925,-1.390367 -2.175363,-1.626779 -2.302334,-2.05057 -0.294064,-0.981498 0.622061,-1.917363 1.565621,-1.599356 0.536681,0.180877 4.967606,3.424235 5.165835,3.781298 0.338401,0.609553 0.06567,1.44987 -0.578712,1.783094 -0.490583,0.25369 -0.734251,0.238707 -1.254092,-0.07711 z"
     id="path4200"
     inkscape:connector-curvature="0" /><path
     style="opacity:1;fill:#ffd42a;fill-opacity:1;stroke:#d35400;stroke-width:0.0625;stroke-linecap:round;stroke-linejoin:miter;stroke-miterlimit:4;stroke-dasharray:none;stroke-dashoffset:0;stroke-opacity:1"
     d="m 32.798701,18.517649 c -0.396149,-0.266882 -0.485629,-0.470893 -1.329515,-3.03125 -1.110543,-3.369395 -1.139617,-3.801991 -0.285222,-4.243815 0.561033,-0.290122 1.071442,-0.237176 1.493831,0.154956 0.30646,0.284508 0.525287,0.826095 1.269733,3.14254 1.020796,3.176344 1.038094,3.449742 0.251703,3.978256 -0.535913,0.360173 -0.865123,0.360012 -1.40053,-6.87e-4 z"
     id="path4202"
     inkscape:connector-curvature="0" /><path
     style="opacity:1;fill:#ffd42a;fill-opacity:1;stroke:#d35400;stroke-width:0.0625;stroke-linecap:round;stroke-linejoin:miter;stroke-miterlimit:4;stroke-dasharray:none;stroke-dashoffset:0;stroke-opacity:1"
     d="m 44.850805,18.625705 c -0.504083,-0.225409 -0.836882,-0.842868 -0.737516,-1.36835 0.04067,-0.215086 0.465225,-1.572315 0.943451,-3.016065 0.962611,-2.906097 1.137755,-3.1875 1.983883,-3.1875 0.575232,0 0.994363,0.281092 1.218306,0.817064 0.200947,0.480934 0.188363,0.533535 -0.959161,4.00917 -0.49437,1.497355 -0.84311,2.35365 -1.03011,2.529327 -0.373863,0.351225 -0.928208,0.435755 -1.418853,0.216354 z"
     id="path4204"
     inkscape:connector-curvature="0" /><path
     style="opacity:1;fill:#ffd42a;fill-opacity:1;stroke:#d35400;stroke-width:0.0625;stroke-linecap:round;stroke-linejoin:miter;stroke-miterlimit:4;stroke-dasharray:none;stroke-dashoffset:0;stroke-opacity:1"
     d="m 57.801851,36.688405 c -0.509638,-0.509638 -0.509973,-1.218758 -8.44e-4,-1.788893 l 0.364542,-0.408222 3.067226,-0.03742 c 3.463874,-0.04226 3.697122,0.0045 4.033126,0.808676 0.241377,0.577695 0.123113,1.078773 -0.348215,1.47537 l -0.375401,0.315879 H 61.35476 58.167235 L 57.801851,36.68841 Z"
     id="path4206"
     inkscape:connector-curvature="0" /><path
     style="opacity:1;fill:#ffd42a;fill-opacity:1;stroke:#d35400;stroke-width:0.0625;stroke-linecap:round;stroke-linejoin:miter;stroke-miterlimit:4;stroke-dasharray:none;stroke-dashoffset:0;stroke-opacity:1"
     d="m 58.739412,51.39311 c -1.023753,-0.598823 -4.722908,-3.438682 -4.883374,-3.748989 -0.546041,-1.055927 0.683436,-2.25216 1.744896,-1.697715 0.571127,0.298324 4.607661,3.283584 4.840972,3.580191 0.80287,1.020683 -0.57186,2.527855 -1.702494,1.866513 z"
     id="path4208"
     inkscape:connector-curvature="0" /><path
     style="opacity:1;fill:#ffd42a;fill-opacity:1;stroke:#d35400;stroke-width:0.0625;stroke-linecap:round;stroke-linejoin:miter;stroke-miterlimit:4;stroke-dasharray:none;stroke-dashoffset:0;stroke-opacity:1"
     d="m 36.598845,61.490902 c -0.147536,-0.103338 -0.331914,-0.380803 -0.40973,-0.616587 -0.107655,-0.326198 -0.231666,-0.448508 -0.518658,-0.511542 -0.393809,-0.08649 -0.857656,-0.678885 -0.858524,-1.096441 -8.22e-4,-0.3961 0.351841,-0.922813 0.719971,-1.075297 0.255371,-0.105778 1.436358,-0.13753 4.141871,-0.111357 l 3.784642,0.03661 0.301525,0.35072 c 0.431264,0.501628 0.406277,1.126258 -0.06386,1.596395 -0.200961,0.200962 -0.477742,0.365385 -0.615068,0.365385 -0.175563,0 -0.274034,0.110869 -0.331712,0.373476 -0.04512,0.205413 -0.225922,0.486663 -0.40179,0.625 -0.29695,0.233581 -0.503825,0.251524 -2.900089,0.251524 -2.093684,0 -2.63092,-0.03544 -2.848577,-0.187888 z"
     id="path4210"
     inkscape:connector-curvature="0" /><path
     style="opacity:1;fill:#ffd42a;fill-opacity:1;stroke:#d35400;stroke-width:0.0625;stroke-linecap:round;stroke-linejoin:miter;stroke-miterlimit:4;stroke-dasharray:none;stroke-dashoffset:0;stroke-opacity:1"
     d="m 34.016012,56.724244 c -0.382391,-0.38239 -0.445652,-1.074064 -0.138361,-1.512783 0.332876,-0.475247 0.919129,-0.531277 5.558815,-0.531277 4.639687,0 5.225939,0.05603 5.558815,0.531277 0.301165,0.429974 0.245075,1.174802 -0.115633,1.535511 L 44.57283,57.05379 h -5.113637 -5.113636 z"
     id="path4212"
     inkscape:connector-curvature="0" /></svg>